<svg width="401" height="181" viewBox="0 0 401 181" fill="none" xmlns="http://www.w3.org/2000/svg">
<g clip-path="url(#clip0_2_2)">
<path d="M64.45 75.14C62.65 75.14 61.05 74.54 59.75 73.24C58.45 71.94 57.85 70.44 57.85 68.54C57.85 66.74 58.45 65.14 59.75 63.84C61.05 62.54 62.55 61.94 64.45 61.94H88.65C97.15 61.94 104.35 64.94 110.35 70.94C116.35 76.94 119.35 84.24 119.35 92.64C119.35 101.14 116.35 108.34 110.35 114.34C104.35 120.34 97.05 123.34 88.65 123.34H64.45C62.65 123.34 61.05 122.74 59.75 121.44C58.45 120.14 57.85 118.64 57.85 116.74V92.54C57.85 90.74 58.45 89.14 59.75 87.84C61.05 86.54 62.55 85.94 64.45 85.94C66.25 85.94 67.85 86.54 69.15 87.84C70.45 89.14 71.05 90.64 71.05 92.54V110.24H88.65C93.55 110.24 97.65 108.54 101.05 105.14C104.45 101.74 106.15 97.54 106.15 92.74C106.15 87.84 104.45 83.74 101.05 80.34C97.65 76.94 93.45 75.24 88.65 75.24H64.45V75.14Z" fill="white"/>
<path d="M123.75 92.74C123.75 84.24 126.75 77.04 132.75 71.04C138.75 65.04 146.05 62.04 154.45 62.04C162.95 62.04 170.15 65.04 176.15 71.04C182.15 77.04 185.15 84.34 185.15 92.74V116.94C185.15 118.74 184.55 120.34 183.25 121.64C181.95 122.94 180.45 123.54 178.55 123.54C176.75 123.54 175.15 122.94 173.85 121.64C172.55 120.34 171.95 118.84 171.95 116.94V105.94H136.85V116.94C136.85 118.74 136.25 120.34 134.95 121.64C133.65 122.94 132.15 123.54 130.25 123.54C128.45 123.54 126.85 122.94 125.55 121.64C124.25 120.34 123.65 118.84 123.65 116.94V92.74H123.75ZM172.05 92.74C172.05 87.84 170.35 83.74 166.95 80.34C163.55 76.94 159.35 75.24 154.55 75.24C149.65 75.24 145.55 76.94 142.15 80.34C138.75 83.74 137.05 87.94 137.05 92.74H172.05Z" fill="white"/>
<path d="M244.55 61.94C246.35 61.94 247.95 62.54 249.25 63.84C250.55 65.14 251.15 66.64 251.15 68.54C251.15 70.34 250.55 71.94 249.25 73.24C247.95 74.54 246.45 75.14 244.55 75.14H208.35C206.85 75.14 205.55 75.64 204.45 76.74C203.35 77.84 202.85 79.14 202.85 80.64C202.85 82.14 203.35 83.44 204.45 84.54C205.55 85.64 206.85 86.14 208.35 86.14H232.55C237.75 86.14 242.15 87.94 245.75 91.64C249.35 95.34 251.25 99.64 251.25 104.84C251.25 110.04 249.45 114.44 245.75 118.04C242.15 121.64 237.75 123.54 232.55 123.54H196.35C194.55 123.54 192.95 122.94 191.65 121.64C190.35 120.34 189.75 118.84 189.75 116.94C189.75 115.14 190.35 113.54 191.65 112.24C192.95 110.94 194.45 110.34 196.35 110.34H232.55C234.05 110.34 235.35 109.84 236.45 108.74C237.55 107.64 238.05 106.34 238.05 104.84C238.05 103.34 237.55 102.04 236.45 100.94C235.35 99.84 234.05 99.34 232.55 99.34H208.35C203.15 99.34 198.75 97.54 195.15 93.84C191.55 90.24 189.65 85.84 189.65 80.64C189.65 75.44 191.45 71.04 195.15 67.44C198.75 63.84 203.15 61.94 208.35 61.94H244.55V61.94Z" fill="white"/>
<path d="M255.55 68.54C255.55 66.74 256.15 65.14 257.45 63.84C258.75 62.54 260.25 61.94 262.15 61.94C263.95 61.94 265.55 62.54 266.85 63.84C268.15 65.14 268.75 66.64 268.75 68.54V116.84C268.75 118.64 268.15 120.24 266.85 121.54C265.55 122.84 264.05 123.44 262.15 123.44C260.35 123.44 258.75 122.84 257.45 121.54C256.15 120.24 255.55 118.74 255.55 116.84V68.54Z" fill="white"/>
<path d="M325.55 70.94C331.55 76.94 334.55 84.24 334.55 92.64C334.55 101.14 331.55 108.34 325.55 114.34C319.55 120.34 312.25 123.34 303.85 123.34C295.35 123.34 288.15 120.34 282.15 114.34C276.15 108.34 273.15 101.04 273.15 92.64C273.15 84.14 276.15 76.94 282.15 70.94C288.15 64.94 295.45 61.94 303.85 61.94C312.35 61.94 319.55 64.94 325.55 70.94ZM303.85 75.14C298.95 75.14 294.85 76.84 291.45 80.24C288.05 83.64 286.35 87.84 286.35 92.64C286.35 97.54 288.05 101.64 291.45 105.04C294.85 108.44 299.05 110.14 303.85 110.14C308.75 110.14 312.85 108.44 316.25 105.04C319.65 101.64 321.35 97.44 321.35 92.64C321.35 87.74 319.65 83.64 316.25 80.24C312.85 76.84 308.75 75.14 303.85 75.14Z" fill="white"/>
<path d="M352.15 116.84C352.15 118.64 351.55 120.24 350.25 121.54C348.95 122.84 347.45 123.44 345.55 123.44C343.75 123.44 342.15 122.84 340.85 121.54C339.55 120.24 338.95 118.74 338.95 116.84V68.54C338.95 66.74 339.55 65.14 340.85 63.84C342.15 62.54 343.65 61.94 345.55 61.94C347.35 61.94 348.95 62.54 350.25 63.84L374.45 88.04L387.35 100.94V68.54C387.35 66.74 387.95 65.14 389.25 63.84C390.55 62.54 392.05 61.94 393.95 61.94C395.75 61.94 397.35 62.54 398.65 63.84C399.95 65.14 400.55 66.64 400.55 68.54V116.84C400.55 118.64 399.95 120.24 398.65 121.54C397.35 122.84 395.85 123.44 393.95 123.44C392.15 123.44 390.55 122.84 389.25 121.54L365.05 97.34L352.15 84.44V116.84Z" fill="white"/>
<path d="M125.05 12.44C124.35 10.84 123.75 9.54001 123.15 8.24001C121.75 5.14001 122.85 1.94002 125.85 0.540016C128.55 -0.759984 131.85 0.34001 133.25 3.44001C136.35 9.84001 139.35 16.24 142.25 22.64C143.65 25.74 142.45 28.84 139.35 30.24C133.05 33.24 126.65 36.24 120.35 39.14C117.15 40.54 114.05 39.34 112.75 36.44C111.45 33.54 112.65 30.64 115.65 29.04C117.55 28.04 119.45 27.24 121.65 26.14C115.75 23.04 109.95 20.94 103.95 19.74C76.55 14.34 52.75 21.64 33.55 41.84C17.85 58.34 11.35 78.54 14.15 101.04C17.85 130.14 33.65 150.84 60.85 161.64C84.55 171.14 107.55 168.24 129.15 154.34C130.05 153.74 130.85 153.14 131.75 152.64C135.05 150.54 138.95 151.34 141.15 154.44C143.25 157.44 142.65 161.44 139.55 163.74C135.15 167.04 130.35 169.84 125.35 172.24C77.45 194.94 19.75 169.54 4.05003 118.94C-10.85 70.74 16.65 20.64 65.25 7.44001C84.75 2.14001 104.05 3.74001 122.65 11.64C123.25 11.94 123.85 12.14 124.45 12.44C124.45 12.34 124.55 12.34 125.05 12.44Z" fill="#0C907C"/>
</g>
<defs>
<clipPath id="clip0_2_2">
<rect width="400.55" height="180.6" fill="white"/>
</clipPath>
</defs>
</svg>
