<svg xmlns="http://www.w3.org/2000/svg" id="Layer_1" x="0px" y="0px" style="enable-background:new 0 0 960 560;" viewBox="179.15 189.76 400.55 180.6"><style type="text/css">	.st0{fill:#0C907C;}</style><g id="XMLID_1_"><g id="XMLID_4_"><g id="XMLID_186_"><path id="XMLID_199_" d="M243.6,264.9c-1.8,0-3.4-0.6-4.7-1.9c-1.3-1.3-1.9-2.8-1.9-4.7c0-1.8,0.6-3.4,1.9-4.7 c1.3-1.3,2.8-1.9,4.7-1.9h24.2c8.5,0,15.7,3,21.7,9c6,6,9,13.3,9,21.7c0,8.5-3,15.7-9,21.7c-6,6-13.3,9-21.7,9h-24.2 c-1.8,0-3.4-0.6-4.7-1.9c-1.3-1.3-1.9-2.8-1.9-4.7v-24.2c0-1.8,0.6-3.4,1.9-4.7c1.3-1.3,2.8-1.9,4.7-1.9c1.8,0,3.4,0.6,4.7,1.9 c1.3,1.3,1.9,2.8,1.9,4.7V300h17.6c4.9,0,9-1.7,12.4-5.1c3.4-3.4,5.1-7.6,5.1-12.4c0-4.9-1.7-9-5.1-12.4 c-3.4-3.4-7.6-5.1-12.4-5.1H243.6z"></path><path id="XMLID_196_" d="M302.9,282.5c0-8.5,3-15.7,9-21.7c6-6,13.3-9,21.7-9c8.5,0,15.7,3,21.7,9c6,6,9,13.3,9,21.7v24.2 c0,1.8-0.6,3.4-1.9,4.7c-1.3,1.3-2.8,1.9-4.7,1.9c-1.8,0-3.4-0.6-4.7-1.9c-1.3-1.3-1.9-2.8-1.9-4.7v-11h-35.1v11 c0,1.8-0.6,3.4-1.9,4.7c-1.3,1.3-2.8,1.9-4.7,1.9c-1.8,0-3.4-0.6-4.7-1.9c-1.3-1.3-1.9-2.8-1.9-4.7V282.5z M351.2,282.5 c0-4.9-1.7-9-5.1-12.4c-3.4-3.4-7.6-5.1-12.4-5.1c-4.9,0-9,1.7-12.4,5.1c-3.4,3.4-5.1,7.6-5.1,12.4H351.2z"></path><path id="XMLID_194_" d="M423.7,251.7c1.8,0,3.4,0.6,4.7,1.9c1.3,1.3,1.9,2.8,1.9,4.7c0,1.8-0.6,3.4-1.9,4.7 c-1.3,1.3-2.8,1.9-4.7,1.9h-36.2c-1.5,0-2.8,0.5-3.9,1.6c-1.1,1.1-1.6,2.4-1.6,3.9c0,1.5,0.5,2.8,1.6,3.9 c1.1,1.1,2.4,1.6,3.9,1.6h24.2c5.2,0,9.6,1.8,13.2,5.5s5.5,8,5.5,13.2c0,5.2-1.8,9.6-5.5,13.2c-3.6,3.6-8,5.5-13.2,5.5h-36.2 c-1.8,0-3.4-0.6-4.7-1.9c-1.3-1.3-1.9-2.8-1.9-4.7c0-1.8,0.6-3.4,1.9-4.7c1.3-1.3,2.8-1.9,4.7-1.9h36.2c1.5,0,2.8-0.5,3.9-1.6 c1.1-1.1,1.6-2.4,1.6-3.9c0-1.5-0.5-2.8-1.6-3.9c-1.1-1.1-2.4-1.6-3.9-1.6h-24.2c-5.2,0-9.6-1.8-13.2-5.5 c-3.6-3.6-5.5-8-5.5-13.2c0-5.2,1.8-9.6,5.5-13.2c3.6-3.6,8-5.5,13.2-5.5H423.7z"></path><path id="XMLID_192_" d="M434.7,258.3c0-1.8,0.6-3.4,1.9-4.7c1.3-1.3,2.8-1.9,4.7-1.9c1.8,0,3.4,0.6,4.7,1.9 c1.3,1.3,1.9,2.8,1.9,4.7v48.3c0,1.8-0.6,3.4-1.9,4.7c-1.3,1.3-2.8,1.9-4.7,1.9c-1.8,0-3.4-0.6-4.7-1.9c-1.3-1.3-1.9-2.8-1.9-4.7 V258.3z"></path><path id="XMLID_189_" d="M504.7,260.7c6,6,9,13.3,9,21.7c0,8.5-3,15.7-9,21.7c-6,6-13.3,9-21.7,9c-8.5,0-15.7-3-21.7-9 c-6-6-9-13.3-9-21.7c0-8.5,3-15.7,9-21.7c6-6,13.3-9,21.7-9C491.5,251.7,498.7,254.7,504.7,260.7z M483,264.9 c-4.9,0-9,1.7-12.4,5.1c-3.4,3.4-5.1,7.6-5.1,12.4c0,4.9,1.7,9,5.1,12.4c3.4,3.4,7.6,5.1,12.4,5.1c4.9,0,9-1.7,12.4-5.1 c3.4-3.4,5.1-7.6,5.1-12.4c0-4.9-1.7-9-5.1-12.4C492,266.6,487.9,264.9,483,264.9z"></path><path id="XMLID_187_" d="M531.3,306.6c0,1.8-0.6,3.4-1.9,4.7c-1.3,1.3-2.8,1.9-4.7,1.9c-1.8,0-3.4-0.6-4.7-1.9 c-1.3-1.3-1.9-2.8-1.9-4.7v-48.3c0-1.8,0.6-3.4,1.9-4.7c1.3-1.3,2.8-1.9,4.7-1.9c1.8,0,3.4,0.6,4.7,1.9l24.2,24.2l12.9,12.9 v-32.4c0-1.8,0.6-3.4,1.9-4.7c1.3-1.3,2.8-1.9,4.7-1.9c1.8,0,3.4,0.6,4.7,1.9c1.3,1.3,1.9,2.8,1.9,4.7v48.3 c0,1.8-0.6,3.4-1.9,4.7c-1.3,1.3-2.8,1.9-4.7,1.9c-1.8,0-3.4-0.6-4.7-1.9l-24.2-24.2l-12.9-12.9V306.6z"></path></g></g><path id="XMLID_303_" class="st0" d="M304.2,202.2c-0.7-1.6-1.3-2.9-1.9-4.2c-1.4-3.1-0.3-6.3,2.7-7.7c2.7-1.3,6-0.2,7.4,2.9 c3.1,6.4,6.1,12.8,9,19.2c1.4,3.1,0.2,6.2-2.9,7.6c-6.3,3-12.7,6-19,8.9c-3.2,1.4-6.3,0.2-7.6-2.7c-1.3-2.9-0.1-5.8,2.9-7.4 c1.9-1,3.8-1.8,6-2.9c-5.9-3.1-11.7-5.2-17.7-6.4c-27.4-5.4-51.2,1.9-70.4,22.1c-15.7,16.5-22.2,36.7-19.4,59.2 c3.7,29.1,19.5,49.8,46.7,60.6c23.7,9.5,46.7,6.6,68.3-7.3c0.9-0.6,1.7-1.2,2.6-1.7c3.3-2.1,7.2-1.3,9.4,1.8c2.1,3,1.5,7-1.6,9.3 c-4.4,3.3-9.2,6.1-14.2,8.5c-47.9,22.7-105.6-2.7-121.3-53.3c-14.9-48.2,12.6-98.3,61.2-111.5c19.5-5.3,38.8-3.7,57.4,4.2 c0.6,0.3,1.2,0.5,1.8,0.8C303.6,202.1,303.7,202.1,304.2,202.2z"></path><g id="XMLID_2_"></g></g></svg>